<svg width="44" height="44" viewBox="0 0 44 44" fill="none" xmlns="http://www.w3.org/2000/svg">
    <g clip-path="url(#clip0_387_2397)">
        <rect width="44" height="44" rx="22" fill="black"/>
        <g clip-path="url(#clip1_387_2397)">
            <mask id="mask0_387_2397" style="mask-type:luminance" maskUnits="userSpaceOnUse" x="-3" y="3" width="53" height="65">
                <path d="M49.1523 67.2304L49.1523 3.98975L-2.99446 3.98974L-2.99446 67.2304L49.1523 67.2304Z" fill="white"/>
            </mask>
            <g mask="url(#mask0_387_2397)">
                <mask id="mask1_387_2397" style="mask-type:luminance" maskUnits="userSpaceOnUse" x="-12" y="-12" width="68" height="96">
                    <path d="M55.5 83.7297L55.5 -11.1025L-11.5531 -11.1025L-11.5531 83.7297L55.5 83.7297Z" fill="white"/>
                </mask>
                <g mask="url(#mask1_387_2397)">
                    <path d="M17.5692 15.7139C18.2816 15.0218 18.9833 14.6034 19.6523 14.381C20.3213 14.1586 20.9565 14.1321 21.5349 14.2239C22.1132 14.3162 22.6347 14.5268 23.0756 14.7791C23.5166 15.0314 23.877 15.3248 24.1338 15.5822C25.0128 16.464 25.6007 17.4129 25.9893 18.3404C26.3779 19.2679 26.5671 20.174 26.6487 20.9703C26.7304 21.766 26.7045 22.4519 26.6628 22.9385C26.6211 23.425 26.5637 23.7122 26.5823 23.7117C27.2108 23.692 27.824 23.5878 28.4024 23.4284C28.9807 23.2696 29.5236 23.0556 30.0118 22.818C30.5001 22.5803 30.9337 22.3179 31.293 22.0622C31.6522 21.8066 31.9372 21.5571 32.1281 21.3442C33.2887 20.0501 33.8091 18.515 33.8491 16.905C33.889 15.295 33.4487 13.6095 32.6884 12.0141C31.9282 10.4187 30.8481 8.91234 29.608 7.66104C28.368 6.40974 26.9686 5.41354 25.5703 4.83632C23.8916 4.14422 21.8468 4.13296 20.5516 4.74622C18.9658 5.49689 17.3772 6.33428 16.0296 7.61486C14.682 8.89544 13.5326 10.4154 12.6969 11.9218C11.8612 13.4282 11.2953 14.6609 11.2029 15.8863C11.1421 16.6944 11.0661 17.4546 11.1759 18.3511C11.2857 19.2477 11.6247 20.5401 11.9694 21.2665C12.314 21.9935 13.2618 22.9396 13.9049 23.2381C14.548 23.5365 14.8859 23.1874 15.8916 22.7994C15.8195 22.1067 15.7807 21.463 15.7903 20.8515C15.7993 20.2393 15.8562 19.6587 15.9761 19.0922C16.096 18.5251 16.2785 17.9721 16.5392 17.4152C16.8 16.8582 17.1384 16.2968 17.5698 15.7139L17.5692 15.7139Z" fill="#F73F4F"/>
                    <path d="M29.2651 33.6206C27.7553 33.9709 23.6168 33.6437 22.7236 40.313C21.8305 46.9817 22.7062 48.0353 23.137 49.1639C23.5678 50.293 26.674 54.6128 25.6784 57.1638C24.6833 59.7149 23.2186 60.7032 22.5986 61.6048C21.9786 62.5064 20.6316 64.2757 22.6651 65.4803C25.6086 67.2243 29.4295 64.0494 31.3701 61.9702C33.3101 59.8906 38.2353 55.2953 37.8321 42.7458C37.532 33.414 30.384 33.361 29.2651 33.6212L29.2651 33.6206Z" fill="#30BDC9"/>
                    <path d="M43.7162 39.9314C43.7162 39.9314 42.1276 38.849 40.3193 39.8447C38.1406 41.0442 37.3752 43.2562 34.9757 45.4558C32.5762 47.6549 27.9077 50.7459 24.5734 51.2331C21.239 51.7202 20.1674 57.511 26.2932 58.5736C32.419 59.6368 34.4875 58.3664 39.4211 55.9111C44.3554 53.4558 49.1049 43.7174 43.7156 39.9314L43.7162 39.9314Z" fill="#F9DA80"/>
                    <path d="M1.42321 38.8101C0.454607 38.9453 -2.69391 39.0348 -2.78683 44.9934C-2.87975 50.952 1.38435 53.7936 3.18696 54.6693C4.98957 55.545 9.57297 57.2732 14.2166 55.5996C18.8603 53.9265 19.9821 50.9576 20.0232 48.4122C20.0643 45.8663 15.4302 45.6675 14.3822 45.4169C13.3336 45.1663 7.26916 46.2712 6.55341 44.1374C5.52174 41.061 3.19147 38.5629 1.42321 38.8101Z" fill="#F73F4F"/>
                    <path d="M16.678 31.582C16.678 31.582 11.826 32.4211 8.91907 37.6133C5.85052 43.0949 6.03748 48.8823 8.78054 50.1358C14.6918 52.8372 14.1078 44.3794 14.3331 41.7028C14.5584 39.0262 17.293 32.1446 17.293 32.1446L16.678 31.582Z" fill="#FAF3E3"/>
                    <path d="M26.4835 36.2905C26.4835 36.2905 22.1777 47.1478 27.5214 52.4425C32.8656 57.7371 39.7258 60.4779 44.1092 56.7927C48.4927 53.1075 46.1996 48.5731 44.5271 47.1146C42.5477 45.3886 35.5405 44.4329 32.9157 40.5951C30.461 37.0062 34.8473 33.1104 36.1718 31.0437C36.4731 30.574 37.5233 29.1825 36.5502 28.282C35.5771 27.3816 32.816 26.2897 26.4835 36.2905Z" fill="#F73F4F"/>
                    <path d="M12.6758 35.5677C12.6758 35.5677 11.7618 38.1413 12.7879 42.0258C13.8139 45.9103 15.1547 47.6375 15.643 48.2243C16.1318 48.8111 16.2332 48.9153 16.7822 49.0076C17.3313 49.1005 22.3731 43.9467 22.3731 43.9467C22.3731 43.9467 24.1948 42.001 24.6476 40.7706C25.1004 39.5401 24.8875 38.9629 24.8875 38.9629C24.8875 38.9629 21.8432 38.9578 18.952 38.4352C15.545 37.8191 12.6752 35.5671 12.6752 35.5671L12.6758 35.5677Z" fill="#30BDC9"/>
                    <path d="M14.8125 35.5295C14.8125 35.5295 15.7552 33.4847 16.9682 32.8613C18.1812 32.2379 20.2502 27.9395 20.2502 27.9395L26.5742 23.7114C26.5742 23.7114 26.3957 27.324 26.1817 29.6131C25.9683 31.9017 24.8009 38.049 24.8009 38.049C24.8009 38.049 22.9307 38.384 19.5631 37.532C16.1955 36.68 14.813 35.5301 14.813 35.5301L14.8125 35.5295Z" fill="#F9DA80"/>
                    <path d="M14.3888 26.134C14.4124 22.95 16.9421 21.7313 18.1421 21.7398C19.3422 21.7488 20.2961 24.337 20.273 27.521C20.2432 31.5412 19.2577 33.2785 18.0576 33.2701C16.8576 33.2611 14.3657 29.318 14.3893 26.134L14.3888 26.134Z" fill="#30BDC9"/>
                    <path d="M16.1769 22.448C16.1769 22.448 15.5005 23.1964 15.2392 23.7922C14.7769 24.8453 14.2487 26.6597 14.8676 28.6392C15.6762 31.2268 17.4901 33.1127 18.0898 33.4664" stroke="black" stroke-width="0.646485" stroke-linejoin="round"/>
                    <path d="M26.293 29.4036C26.293 29.4036 26.1375 32.3178 25.8126 34.3006C25.4877 36.284 24.6638 38.7207 24.6638 38.7207" stroke="black" stroke-width="0.646485" stroke-linejoin="round"/>
                    <path d="M25.0597 29.5065C25.5895 30.0883 27.0633 29.609 28.3515 28.436C29.6398 27.2629 30.2546 25.8403 29.7249 25.2585C29.1951 24.6767 27.7213 25.156 26.433 26.3291C25.1448 27.5021 24.5299 28.9247 25.0597 29.5065Z" fill="#30BDC9"/>
                    <path d="M-2.64396 46.3752C-2.82136 46.3938 -2.94919 46.5526 -2.9306 46.73C-2.92159 46.8156 -2.90301 46.9705 -2.86134 47.18C-2.79207 47.524 -2.68733 47.9075 -2.55274 48.3186C-2.16811 49.4905 -1.57512 50.6647 -0.727598 51.7617C-0.136301 52.5276 0.55636 53.223 1.36503 53.8453C2.93056 55.0504 4.49834 55.818 6.00643 56.2319C6.98968 56.5016 7.79328 56.5867 8.35642 56.5664C8.38795 56.5653 8.40879 56.5613 8.4223 56.5602C8.60026 56.5467 8.73597 56.3969 8.72246 56.2189C8.70838 56.041 8.55239 55.9053 8.37444 55.9188C8.36937 55.9188 8.35698 55.9177 8.33502 55.9188C8.16326 55.925 7.92618 55.9177 7.62827 55.8872C7.18846 55.8422 6.69909 55.7555 6.1765 55.6124C4.74838 55.2205 3.25718 54.4862 1.75923 53.3334C0.995611 52.7455 0.342367 52.0855 -0.215143 51.363C-1.0148 50.3274 -1.57963 49.218 -1.94229 48.112C-2.069 47.7262 -2.1608 47.372 -2.22499 47.0527C-2.24752 46.9418 -2.26328 46.8449 -2.27567 46.7616C-2.28299 46.7131 -2.28638 46.6765 -2.28806 46.6624C-2.30665 46.4851 -2.46545 46.3572 -2.64284 46.3758L-2.64396 46.3752ZM15.9768 31.2667C15.8969 31.2448 15.8096 31.2538 15.7319 31.2977C15.7178 31.3056 15.5201 31.4188 15.4396 31.4672C15.211 31.6058 14.957 31.7651 14.6827 31.9442C13.8994 32.4555 13.1172 33.0215 12.384 33.619C11.8569 34.0487 11.3732 34.4772 10.9469 34.9103C10.288 35.5793 9.60265 36.5513 8.90379 37.7434C8.42343 38.5628 7.96447 39.434 7.54324 40.3108C7.3957 40.6177 7.26899 40.9043 7.15355 41.1606C7.113 41.2501 7.0122 41.468 7.00601 41.4832C6.93561 41.6471 7.01727 41.8375 7.18114 41.9073C7.34501 41.9777 7.53536 41.9028 7.60519 41.7383C7.61082 41.7248 7.70036 41.5165 7.73978 41.4286C7.85297 41.1775 7.98418 40.8942 8.12947 40.5923C8.54338 39.7307 8.99277 38.8669 9.46299 38.0644C10.1371 36.9139 10.7982 35.9864 11.4126 35.363C11.8214 34.948 12.2798 34.533 12.7895 34.1174C13.5035 33.5356 14.2694 32.9877 15.0353 32.4882C15.3033 32.3136 15.5562 32.1531 15.7786 32.018C15.8563 31.9707 16.0388 31.8614 16.0506 31.8547C16.2055 31.7663 16.2612 31.568 16.1728 31.4126C16.1283 31.3349 16.0557 31.2876 15.9757 31.2656L15.9768 31.2667ZM10.0588 31.7781C9.97826 31.7584 9.89041 31.7696 9.81382 31.8158C9.66121 31.9087 9.61841 32.1053 9.71133 32.2579C9.74568 32.3142 9.80819 32.4139 9.90731 32.5501C10.0695 32.7737 10.2683 33.0215 10.5031 33.2879C11.171 34.0453 12.0044 34.8055 13.0113 35.5134C15.5663 37.3104 18.7931 38.484 22.748 38.7374C26.761 38.9942 30.4349 38.502 33.6673 37.5289C34.6162 37.2434 35.4502 36.9376 36.1716 36.629C36.425 36.5203 36.6475 36.4212 36.8344 36.3299C36.9482 36.2748 37.0315 36.2353 37.0732 36.2128C37.2303 36.1278 37.2872 35.9279 37.2022 35.7707C37.1171 35.6136 36.9172 35.5568 36.7601 35.6418C36.7263 35.6598 36.6598 35.6947 36.5545 35.746C36.3766 35.8327 36.162 35.9341 35.9182 36.0388C35.2182 36.3384 34.405 36.6346 33.4798 36.9128C30.3178 37.8645 26.7176 38.3415 22.7858 38.0898C18.9519 37.8442 15.8377 36.7101 13.3785 34.9807C12.415 34.3032 11.6243 33.5824 10.9885 32.8616C10.7672 32.6104 10.5825 32.3773 10.4322 32.17C10.3803 32.0985 10.337 32.0377 10.3015 31.9842C10.2807 31.9532 10.2677 31.9329 10.2621 31.9245C10.2153 31.8485 10.1388 31.7972 10.0582 31.7775L10.0588 31.7781ZM36.5483 24.9748C36.4695 24.95 36.3828 24.9579 36.3034 24.9996C36.2775 25.0131 36.2324 25.0395 36.1643 25.0778C36.0517 25.1409 35.9193 25.2119 35.7729 25.2997C35.3556 25.5492 34.8916 25.8482 34.3915 26.1951C32.9651 27.184 31.537 28.3671 30.2023 29.7395C25.9585 34.1022 23.5871 39.3591 24.086 45.4815C24.6267 52.1125 28.7708 56.2764 35.3038 58.4569C37.5001 59.1901 39.8444 59.6524 42.2254 59.8957C43.8286 60.0596 45.232 60.1074 46.3143 60.0843C46.3858 60.0826 46.5537 60.0736 46.5655 60.0731C46.744 60.0652 46.8865 59.9165 46.8786 59.7386C46.8701 59.56 46.7153 59.4238 46.5373 59.4322C46.4973 59.4339 46.4168 59.4345 46.2997 59.4373C45.2427 59.4598 43.8714 59.4164 42.2963 59.256C39.9593 59.0177 37.6544 58.5616 35.5065 57.8447C29.1971 55.7386 25.2506 51.7662 24.7337 45.428C24.251 39.5123 26.5436 34.426 30.6675 30.1866C31.9711 28.8464 33.3632 27.6942 34.757 26.7278C35.2441 26.39 35.7003 26.1005 36.1046 25.8589C36.2459 25.7744 36.3687 25.7035 36.4763 25.6438C36.5399 25.6083 36.5816 25.583 36.6024 25.5723C36.7607 25.4895 36.8209 25.2952 36.7376 25.137C36.6959 25.0581 36.6261 25.0018 36.5472 24.977L36.5483 24.9748ZM25.9838 4.0147C25.9039 4.03666 25.8284 4.0879 25.7845 4.16505C25.6961 4.31992 25.7518 4.52039 25.9067 4.60881C25.9196 4.61613 26.1393 4.74565 26.2288 4.80309C26.4867 4.96697 26.7734 5.16012 27.0836 5.38425C27.9717 6.02511 28.8581 6.76845 29.6842 7.6171C30.3577 8.3092 30.962 9.04523 31.479 9.8111C33.0822 12.1853 33.9005 14.3754 33.9112 16.9331C33.9202 19.0922 33.143 20.7051 31.747 21.8736C30.69 22.7583 29.3514 23.3265 27.921 23.643C27.564 23.7218 27.2306 23.7832 26.9282 23.8209C26.8229 23.8339 26.7306 23.8384 26.6506 23.8451C26.6039 23.8491 26.5729 23.8502 26.5582 23.8513C26.3803 23.8609 26.2423 24.0146 26.2519 24.1926C26.2615 24.3711 26.4152 24.5085 26.5932 24.4989C26.6146 24.4978 26.6512 24.4978 26.7058 24.4933C26.7942 24.486 26.8967 24.4764 27.0099 24.4623C27.3314 24.4223 27.6845 24.3621 28.0618 24.2782C29.5851 23.9414 31.0121 23.3327 32.1598 22.3719C33.7011 21.0824 34.5689 19.2859 34.5588 16.9314C34.5475 14.2312 33.6859 11.9172 32.0168 9.44562C31.4773 8.64653 30.8494 7.89023 30.1499 7.17166C29.2957 6.29429 28.3744 5.52053 27.4576 4.85884C27.1366 4.62683 26.8387 4.42804 26.5701 4.25741C26.4755 4.19772 26.2451 4.05299 26.2282 4.04342C26.1505 3.99949 26.0638 3.9933 25.9838 4.01526L25.9838 4.0147Z" fill="black"/>
                    <path d="M15.7535 21.2204C15.7828 17.2125 17.176 13.8686 21.3996 13.9001C24.3673 13.9221 26.9161 17.462 26.8705 21.4693C26.826 25.3606 24.494 28.8926 21.3889 28.6803C18.4279 28.4776 15.7237 25.2283 15.7535 21.2204Z" fill="#FAF3E3"/>
                    <path d="M15.9993 17.5975C15.9993 17.5975 18.2412 18.8347 18.7644 17.7715C19.1332 17.0225 16.7151 15.9852 16.7151 15.9852L18.2305 14.4411C18.2305 14.4411 20.2572 15.4795 20.8491 16.3851C21.2608 17.0152 21.3796 18.1021 20.3158 18.1601C19.3264 18.2141 18.9372 17.2478 19.488 16.153C20.0393 15.0583 20.8682 13.9016 20.8682 13.9016C20.8682 13.9016 22.503 15.042 23.1315 16.3259C23.6045 17.2923 23.1827 17.8802 22.5075 17.8588C21.611 17.8306 21.2444 16.9516 21.9911 15.9593C22.8268 14.8482 24.5624 13.9388 24.5624 13.9388C24.5624 13.9388 25.5834 13.767 25.3261 14.6196C25.0687 15.4722 24.309 15.194 23.6817 16.5608C23.3325 17.321 23.7397 17.7039 24.2995 17.8774C24.8057 18.0339 25.2399 17.5851 25.3784 17.3131C25.9224 16.2454 25.9844 15.9458 25.9844 15.9458" stroke="#F73F4F" stroke-width="0.350836" stroke-linejoin="round"/>
                    <path d="M17.1196 21.345C17.1196 21.345 18.1935 20.8945 19.0742 21.818" stroke="#F73F4F" stroke-width="0.350836" stroke-linecap="round" stroke-linejoin="round"/>
                    <path d="M20.9722 22.0963C20.9722 22.0963 21.5635 21.5033 22.2454 21.4475C22.9274 21.3918 23.3097 21.5624 23.6133 21.8513" stroke="#F73F4F" stroke-width="0.350836" stroke-linecap="round" stroke-linejoin="round"/>
                    <path d="M22.0923 21.7681C22.0935 21.6493 22.1836 21.5541 22.294 21.5547C22.4043 21.5553 22.4933 21.6521 22.4922 21.7709C22.4911 21.8898 22.4009 21.9849 22.2906 21.9844C22.1802 21.9838 22.0912 21.8869 22.0923 21.7681Z" fill="#F73F4F"/>
                    <path d="M22.0923 21.7681C22.0935 21.6493 22.1836 21.5541 22.294 21.5547C22.4043 21.5553 22.4933 21.6521 22.4922 21.7709C22.4911 21.8898 22.4009 21.9849 22.2906 21.9844C22.1802 21.9838 22.0912 21.8869 22.0923 21.7681Z" stroke="#F73F4F" stroke-width="0.350836" stroke-linecap="round" stroke-linejoin="round"/>
                    <path d="M17.6976 21.4018C17.697 21.2503 18.1103 21.4046 18.2151 21.4057C18.3198 21.4063 18.7433 21.5026 18.7422 21.6541C18.7411 21.8055 18.4921 22.3456 18.0889 22.269C17.9859 22.2493 17.7015 22.2155 17.6976 21.4018Z" fill="#F73F4F"/>
                    <path d="M17.6976 21.4018C17.697 21.2503 18.1103 21.4046 18.2151 21.4057C18.3198 21.4063 18.7433 21.5026 18.7422 21.6541C18.7411 21.8055 18.4921 22.3456 18.0889 22.269C17.9859 22.2493 17.7015 22.2155 17.6976 21.4018Z" stroke="#F73F4F" stroke-width="0.350836" stroke-linecap="round" stroke-linejoin="round"/>
                    <path d="M18.6079 24.6871C18.6079 24.6871 19.3535 25.0064 19.6131 24.9658C19.8727 24.9253 19.9651 24.6972 20.0276 23.5574C20.0901 22.4176 19.9628 21.7109 20.1779 21.1399C20.393 20.5683 21.5751 19.8289 22.7374 20.0305C23.9003 20.2321 27.1445 22.0651 27.1445 22.0651" stroke="#F73F4F" stroke-width="0.350836" stroke-linecap="round" stroke-linejoin="round"/>
                    <path d="M18.3724 25.9514C18.3724 25.9514 18.5965 25.9452 18.6151 25.9317C18.7621 25.8264 18.9456 25.667 19.0436 25.7115C19.2041 25.7842 19.4063 25.992 19.5285 25.9604C19.6817 25.9204 19.9345 25.6422 20.1919 25.7205C20.4492 25.7994 20.4729 25.9852 21.031 26.0089C21.4071 26.0246 21.5795 26.0072 21.6172 25.9942" stroke="#F73F4F" stroke-width="0.350836" stroke-linecap="round" stroke-linejoin="round"/>
                    <path d="M19.012 26.7166C19.012 26.7166 19.2519 26.8973 19.5701 26.9272C19.7655 26.9452 20.0364 26.8748 20.1771 26.8145C20.2656 26.7768 20.2734 26.7413 20.2734 26.7413" stroke="#F73F4F" stroke-width="0.350836" stroke-linecap="round" stroke-linejoin="round"/>
                    <path d="M17.5692 15.7139C18.2816 15.0218 18.9833 14.6034 19.6523 14.381C20.3213 14.1586 20.9565 14.1321 21.5349 14.2239C22.1132 14.3162 22.6347 14.5268 23.0756 14.7791C23.5166 15.0314 23.877 15.3248 24.1338 15.5822C25.0128 16.464 25.6007 17.4129 25.9893 18.3404C26.3779 19.2679 26.5671 20.174 26.6487 20.9703C26.7304 21.766 26.7045 22.4519 26.6628 22.9385C26.6211 23.425 26.5637 23.7122 26.5823 23.7117C27.2108 23.692 27.824 23.5878 28.4024 23.4284C28.9807 23.2696 29.5236 23.0556 30.0118 22.818C30.5001 22.5803 30.9337 22.3179 31.293 22.0622C31.6522 21.8066 31.9372 21.5571 32.1281 21.3442C33.2887 20.0501 33.8091 18.515 33.8491 16.905C33.889 15.295 33.4487 13.6095 32.6884 12.0141C31.9282 10.4187 30.8481 8.91234 29.608 7.66104C28.368 6.40974 26.9686 5.41354 25.5703 4.83632C23.8916 4.14422 21.8468 4.13296 20.5516 4.74622C18.9658 5.49689 17.3772 6.33428 16.0296 7.61486C14.682 8.89544 13.5326 10.4154 12.6969 11.9218C11.8612 13.4282 11.2953 14.6609 11.2029 15.8863C11.1421 16.6944 11.0661 17.4546 11.1759 18.3511C11.2857 19.2477 11.6247 20.5401 11.9694 21.2665C12.314 21.9935 13.2618 22.9396 13.9049 23.2381C14.548 23.5365 14.8859 23.1874 15.8916 22.7994C15.8195 22.1067 15.7807 21.463 15.7903 20.8515C15.7993 20.2393 15.8562 19.6587 15.9761 19.0922C16.096 18.5251 16.2785 17.9721 16.5392 17.4152C16.8 16.8582 17.1384 16.2968 17.5698 15.7139L17.5692 15.7139Z" fill="#E00700"/>
                    <path d="M29.2651 33.6206C27.7553 33.9709 23.6168 33.6437 22.7236 40.313C21.8305 46.9817 22.7062 48.0353 23.137 49.1639C23.5678 50.293 26.674 54.6128 25.6784 57.1638C24.6833 59.7149 23.2186 60.7032 22.5986 61.6048C21.9786 62.5064 20.6316 64.2757 22.6651 65.4803C25.6086 67.2243 29.4295 64.0494 31.3701 61.9702C33.3101 59.8906 38.2353 55.2953 37.8321 42.7458C37.532 33.414 30.384 33.361 29.2651 33.6212L29.2651 33.6206Z" fill="#51008A"/>
                    <path d="M43.7162 39.9314C43.7162 39.9314 42.1276 38.849 40.3193 39.8447C38.1406 41.0442 37.3752 43.2562 34.9757 45.4558C32.5762 47.6549 27.9077 50.7459 24.5734 51.2331C21.239 51.7202 20.1674 57.511 26.2932 58.5736C32.419 59.6368 34.4875 58.3664 39.4211 55.9111C44.3554 53.4558 49.1049 43.7174 43.7156 39.9314L43.7162 39.9314Z" fill="#AD860F"/>
                    <path d="M1.42321 38.8101C0.454607 38.9453 -2.69391 39.0348 -2.78683 44.9934C-2.87975 50.952 1.38435 53.7936 3.18696 54.6693C4.98957 55.545 9.57297 57.2732 14.2166 55.5996C18.8603 53.9265 19.9821 50.9576 20.0232 48.4122C20.0643 45.8663 15.4302 45.6675 14.3822 45.4169C13.3336 45.1663 7.26916 46.2712 6.55341 44.1374C5.52174 41.061 3.19147 38.5629 1.42321 38.8101Z" fill="#E00700"/>
                    <path d="M16.678 31.582C16.678 31.582 11.826 32.4211 8.91907 37.6133C5.85052 43.0949 6.03748 48.8823 8.78054 50.1358C14.6918 52.8372 14.1078 44.3794 14.3331 41.7028C14.5584 39.0262 17.293 32.1446 17.293 32.1446L16.678 31.582Z" fill="#4E8327"/>
                    <path d="M26.4835 36.2905C26.4835 36.2905 22.1777 47.1478 27.5214 52.4425C32.8656 57.7371 39.7258 60.4779 44.1092 56.7927C48.4927 53.1075 46.1996 48.5731 44.5271 47.1146C42.5477 45.3886 35.5405 44.4329 32.9157 40.5951C30.461 37.0062 34.8473 33.1104 36.1718 31.0437C36.4731 30.574 37.5233 29.1825 36.5502 28.282C35.5771 27.3816 32.816 26.2897 26.4835 36.2905Z" fill="#C27AAA"/>
                    <path d="M12.6758 35.5677C12.6758 35.5677 11.7618 38.1413 12.7879 42.0258C13.8139 45.9103 15.1547 47.6375 15.643 48.2243C16.1318 48.8111 16.2332 48.9153 16.7822 49.0076C17.3313 49.1005 22.3731 43.9467 22.3731 43.9467C22.3731 43.9467 24.1948 42.001 24.6476 40.7706C25.1004 39.5401 24.8875 38.9629 24.8875 38.9629C24.8875 38.9629 21.8432 38.9578 18.952 38.4352C15.545 37.8191 12.6752 35.5671 12.6752 35.5671L12.6758 35.5677Z" fill="#880390"/>
                    <path d="M14.8125 35.5295C14.8125 35.5295 15.7552 33.4847 16.9682 32.8613C18.1812 32.2379 20.2502 27.9395 20.2502 27.9395L26.5742 23.7114C26.5742 23.7114 26.3957 27.324 26.1817 29.6131C25.9683 31.9017 24.8009 38.049 24.8009 38.049C24.8009 38.049 22.9307 38.384 19.5631 37.532C16.1955 36.68 14.813 35.5301 14.813 35.5301L14.8125 35.5295Z" fill="#DDBB00"/>
                    <path d="M14.3888 26.134C14.4124 22.95 16.9421 21.7313 18.1421 21.7398C19.3422 21.7488 20.2961 24.337 20.273 27.521C20.2432 31.5412 19.2577 33.2785 18.0576 33.2701C16.8576 33.2611 14.3657 29.318 14.3893 26.134L14.3888 26.134Z" fill="#1B3E75"/>
                    <path d="M16.1769 22.448C16.1769 22.448 15.5005 23.1964 15.2392 23.7922C14.7769 24.8453 14.2487 26.6597 14.8676 28.6392C15.6762 31.2268 17.4901 33.1127 18.0898 33.4664" stroke="black" stroke-width="0.646485" stroke-linejoin="round"/>
                    <path d="M26.293 29.4036C26.293 29.4036 26.1375 32.3178 25.8126 34.3006C25.4877 36.284 24.6638 38.7207 24.6638 38.7207" stroke="black" stroke-width="0.646485" stroke-linejoin="round"/>
                    <path d="M25.0597 29.5065C25.5895 30.0883 27.0633 29.609 28.3515 28.436C29.6398 27.2629 30.2546 25.8403 29.7249 25.2585C29.1951 24.6767 27.7213 25.156 26.433 26.3291C25.1448 27.5021 24.5299 28.9247 25.0597 29.5065Z" fill="#648197"/>
                    <path d="M-2.64396 46.3752C-2.82136 46.3938 -2.94919 46.5526 -2.9306 46.73C-2.92159 46.8156 -2.90301 46.9705 -2.86134 47.18C-2.79207 47.524 -2.68733 47.9075 -2.55274 48.3186C-2.16811 49.4905 -1.57512 50.6647 -0.727598 51.7617C-0.136301 52.5276 0.55636 53.223 1.36503 53.8453C2.93056 55.0504 4.49834 55.818 6.00643 56.2319C6.98968 56.5016 7.79328 56.5867 8.35642 56.5664C8.38795 56.5653 8.40879 56.5613 8.4223 56.5602C8.60026 56.5467 8.73597 56.3969 8.72246 56.2189C8.70838 56.041 8.55239 55.9053 8.37444 55.9188C8.36937 55.9188 8.35698 55.9177 8.33502 55.9188C8.16326 55.925 7.92618 55.9177 7.62827 55.8872C7.18846 55.8422 6.69909 55.7555 6.1765 55.6124C4.74838 55.2205 3.25718 54.4862 1.75923 53.3334C0.995611 52.7455 0.342367 52.0855 -0.215143 51.363C-1.0148 50.3274 -1.57963 49.218 -1.94229 48.112C-2.069 47.7262 -2.1608 47.372 -2.22499 47.0527C-2.24752 46.9418 -2.26328 46.8449 -2.27567 46.7616C-2.28299 46.7131 -2.28638 46.6765 -2.28806 46.6624C-2.30665 46.4851 -2.46545 46.3572 -2.64284 46.3758L-2.64396 46.3752ZM15.9768 31.2667C15.8969 31.2448 15.8096 31.2538 15.7319 31.2977C15.7178 31.3056 15.5201 31.4188 15.4396 31.4672C15.211 31.6058 14.957 31.7651 14.6827 31.9442C13.8994 32.4555 13.1172 33.0215 12.384 33.619C11.8569 34.0487 11.3732 34.4772 10.9469 34.9103C10.288 35.5793 9.60265 36.5513 8.90379 37.7434C8.42343 38.5628 7.96447 39.434 7.54324 40.3108C7.3957 40.6177 7.26899 40.9043 7.15355 41.1606C7.113 41.2501 7.0122 41.468 7.00601 41.4832C6.93561 41.6471 7.01727 41.8375 7.18114 41.9073C7.34501 41.9777 7.53536 41.9028 7.60519 41.7383C7.61082 41.7248 7.70036 41.5165 7.73978 41.4286C7.85297 41.1775 7.98418 40.8942 8.12947 40.5923C8.54338 39.7307 8.99277 38.8669 9.46299 38.0644C10.1371 36.9139 10.7982 35.9864 11.4126 35.363C11.8214 34.948 12.2798 34.533 12.7895 34.1174C13.5035 33.5356 14.2694 32.9877 15.0353 32.4882C15.3033 32.3136 15.5562 32.1531 15.7786 32.018C15.8563 31.9707 16.0388 31.8614 16.0506 31.8547C16.2055 31.7663 16.2612 31.568 16.1728 31.4126C16.1283 31.3349 16.0557 31.2876 15.9757 31.2656L15.9768 31.2667ZM10.0588 31.7781C9.97826 31.7584 9.89041 31.7696 9.81382 31.8158C9.66121 31.9087 9.61841 32.1053 9.71133 32.2579C9.74568 32.3142 9.80819 32.4139 9.90731 32.5501C10.0695 32.7737 10.2683 33.0215 10.5031 33.2879C11.171 34.0453 12.0044 34.8055 13.0113 35.5134C15.5663 37.3104 18.7931 38.484 22.748 38.7374C26.761 38.9942 30.4349 38.502 33.6673 37.5289C34.6162 37.2434 35.4502 36.9376 36.1716 36.629C36.425 36.5203 36.6475 36.4212 36.8344 36.3299C36.9482 36.2748 37.0315 36.2353 37.0732 36.2128C37.2303 36.1278 37.2872 35.9279 37.2022 35.7707C37.1171 35.6136 36.9172 35.5568 36.7601 35.6418C36.7263 35.6598 36.6598 35.6947 36.5545 35.746C36.3766 35.8327 36.162 35.9341 35.9182 36.0388C35.2182 36.3384 34.405 36.6346 33.4798 36.9128C30.3178 37.8645 26.7176 38.3415 22.7858 38.0898C18.9519 37.8442 15.8377 36.7101 13.3785 34.9807C12.415 34.3032 11.6243 33.5824 10.9885 32.8616C10.7672 32.6104 10.5825 32.3773 10.4322 32.17C10.3803 32.0985 10.337 32.0377 10.3015 31.9842C10.2807 31.9532 10.2677 31.9329 10.2621 31.9245C10.2153 31.8485 10.1388 31.7972 10.0582 31.7775L10.0588 31.7781ZM36.5483 24.9748C36.4695 24.95 36.3828 24.9579 36.3034 24.9996C36.2775 25.0131 36.2324 25.0395 36.1643 25.0778C36.0517 25.1409 35.9193 25.2119 35.7729 25.2997C35.3556 25.5492 34.8916 25.8482 34.3915 26.1951C32.9651 27.184 31.537 28.3671 30.2023 29.7395C25.9585 34.1022 23.5871 39.3591 24.086 45.4815C24.6267 52.1125 28.7708 56.2764 35.3038 58.4569C37.5001 59.1901 39.8444 59.6524 42.2254 59.8957C43.8286 60.0596 45.232 60.1074 46.3143 60.0843C46.3858 60.0826 46.5537 60.0736 46.5655 60.0731C46.744 60.0652 46.8865 59.9165 46.8786 59.7386C46.8701 59.56 46.7153 59.4238 46.5373 59.4322C46.4973 59.4339 46.4168 59.4345 46.2997 59.4373C45.2427 59.4598 43.8714 59.4164 42.2963 59.256C39.9593 59.0177 37.6544 58.5616 35.5065 57.8447C29.1971 55.7386 25.2506 51.7662 24.7337 45.428C24.251 39.5123 26.5436 34.426 30.6675 30.1866C31.9711 28.8464 33.3632 27.6942 34.757 26.7278C35.2441 26.39 35.7003 26.1005 36.1046 25.8589C36.2459 25.7744 36.3687 25.7035 36.4763 25.6438C36.5399 25.6083 36.5816 25.583 36.6024 25.5723C36.7607 25.4895 36.8209 25.2952 36.7376 25.137C36.6959 25.0581 36.6261 25.0018 36.5472 24.977L36.5483 24.9748ZM25.9838 4.0147C25.9039 4.03666 25.8284 4.0879 25.7845 4.16505C25.6961 4.31992 25.7518 4.52039 25.9067 4.60881C25.9196 4.61613 26.1393 4.74565 26.2288 4.80309C26.4867 4.96697 26.7734 5.16012 27.0836 5.38425C27.9717 6.02511 28.8581 6.76845 29.6842 7.6171C30.3577 8.3092 30.962 9.04523 31.479 9.8111C33.0822 12.1853 33.9005 14.3754 33.9112 16.9331C33.9202 19.0922 33.143 20.7051 31.747 21.8736C30.69 22.7583 29.3514 23.3265 27.921 23.643C27.564 23.7218 27.2306 23.7832 26.9282 23.8209C26.8229 23.8339 26.7306 23.8384 26.6506 23.8451C26.6039 23.8491 26.5729 23.8502 26.5582 23.8513C26.3803 23.8609 26.2423 24.0146 26.2519 24.1926C26.2615 24.3711 26.4152 24.5085 26.5932 24.4989C26.6146 24.4978 26.6512 24.4978 26.7058 24.4933C26.7942 24.486 26.8967 24.4764 27.0099 24.4623C27.3314 24.4223 27.6845 24.3621 28.0618 24.2782C29.5851 23.9414 31.0121 23.3327 32.1598 22.3719C33.7011 21.0824 34.5689 19.2859 34.5588 16.9314C34.5475 14.2312 33.6859 11.9172 32.0168 9.44562C31.4773 8.64653 30.8494 7.89023 30.1499 7.17166C29.2957 6.29429 28.3744 5.52053 27.4576 4.85884C27.1366 4.62683 26.8387 4.42804 26.5701 4.25741C26.4755 4.19772 26.2451 4.05299 26.2282 4.04342C26.1505 3.99949 26.0638 3.9933 25.9838 4.01526L25.9838 4.0147Z" fill="black"/>
                    <path d="M15.7535 21.2204C15.7828 17.2125 17.176 13.8686 21.3996 13.9001C24.3673 13.9221 26.9161 17.462 26.8705 21.4693C26.826 25.3606 24.494 28.8926 21.3889 28.6803C18.4279 28.4776 15.7237 25.2283 15.7535 21.2204Z" fill="#ECB352"/>
                    <path d="M15.9993 17.5975C15.9993 17.5975 18.2412 18.8347 18.7644 17.7715C19.1332 17.0225 16.7151 15.9852 16.7151 15.9852L18.2305 14.4411C18.2305 14.4411 20.2572 15.4795 20.8491 16.3851C21.2608 17.0152 21.3796 18.1021 20.3158 18.1601C19.3264 18.2141 18.9372 17.2478 19.488 16.153C20.0393 15.0583 20.8682 13.9016 20.8682 13.9016C20.8682 13.9016 22.503 15.042 23.1315 16.3259C23.6045 17.2923 23.1827 17.8802 22.5075 17.8588C21.611 17.8306 21.2444 16.9516 21.9911 15.9593C22.8268 14.8482 24.5624 13.9388 24.5624 13.9388C24.5624 13.9388 25.5834 13.767 25.3261 14.6196C25.0687 15.4722 24.309 15.194 23.6817 16.5608C23.3325 17.321 23.7397 17.7039 24.2995 17.8774C24.8057 18.0339 25.2399 17.5851 25.3784 17.3131C25.9224 16.2454 25.9844 15.9458 25.9844 15.9458" stroke="#E00400" stroke-width="0.350836" stroke-linejoin="round"/>
                    <path d="M17.1196 21.345C17.1196 21.345 18.1935 20.8945 19.0742 21.818" stroke="#E00700" stroke-width="0.350836" stroke-linecap="round" stroke-linejoin="round"/>
                    <path d="M20.9722 22.0963C20.9722 22.0963 21.5635 21.5033 22.2454 21.4475C22.9274 21.3918 23.3097 21.5624 23.6133 21.8513" stroke="#E00700" stroke-width="0.350836" stroke-linecap="round" stroke-linejoin="round"/>
                    <path d="M22.0923 21.7681C22.0935 21.6493 22.1836 21.5541 22.294 21.5547C22.4043 21.5553 22.4933 21.6521 22.4922 21.7709C22.4911 21.8898 22.4009 21.9849 22.2906 21.9844C22.1802 21.9838 22.0912 21.8869 22.0923 21.7681Z" fill="#E00700"/>
                    <path d="M22.0923 21.7681C22.0935 21.6493 22.1836 21.5541 22.294 21.5547C22.4043 21.5553 22.4933 21.6521 22.4922 21.7709C22.4911 21.8898 22.4009 21.9849 22.2906 21.9844C22.1802 21.9838 22.0912 21.8869 22.0923 21.7681Z" stroke="#E00700" stroke-width="0.350836" stroke-linecap="round" stroke-linejoin="round"/>
                    <path d="M17.6976 21.4018C17.697 21.2503 18.1103 21.4046 18.2151 21.4057C18.3198 21.4063 18.7433 21.5026 18.7422 21.6541C18.7411 21.8055 18.4921 22.3456 18.0889 22.269C17.9859 22.2493 17.7015 22.2155 17.6976 21.4018Z" fill="#E00400"/>
                    <path d="M17.6976 21.4018C17.697 21.2503 18.1103 21.4046 18.2151 21.4057C18.3198 21.4063 18.7433 21.5026 18.7422 21.6541C18.7411 21.8055 18.4921 22.3456 18.0889 22.269C17.9859 22.2493 17.7015 22.2155 17.6976 21.4018Z" stroke="#E00700" stroke-width="0.350836" stroke-linecap="round" stroke-linejoin="round"/>
                    <path d="M18.6079 24.6871C18.6079 24.6871 19.3535 25.0064 19.6131 24.9658C19.8727 24.9253 19.9651 24.6972 20.0276 23.5574C20.0901 22.4176 19.9628 21.7109 20.1779 21.1399C20.393 20.5683 21.5751 19.8289 22.7374 20.0305C23.9003 20.2321 27.1445 22.0651 27.1445 22.0651" stroke="#E00700" stroke-width="0.350836" stroke-linecap="round" stroke-linejoin="round"/>
                    <path d="M18.3724 25.9514C18.3724 25.9514 18.5965 25.9452 18.6151 25.9317C18.7621 25.8264 18.9456 25.667 19.0436 25.7115C19.2041 25.7842 19.4063 25.992 19.5285 25.9604C19.6817 25.9204 19.9345 25.6422 20.1919 25.7205C20.4492 25.7994 20.4729 25.9852 21.031 26.0089C21.4071 26.0246 21.5795 26.0072 21.6172 25.9942" stroke="#E00700" stroke-width="0.350836" stroke-linecap="round" stroke-linejoin="round"/>
                    <path d="M19.012 26.7166C19.012 26.7166 19.2519 26.8973 19.5701 26.9272C19.7655 26.9452 20.0364 26.8748 20.1771 26.8145C20.2656 26.7768 20.2734 26.7413 20.2734 26.7413" stroke="#E00700" stroke-width="0.350836" stroke-linecap="round" stroke-linejoin="round"/>
                </g>
            </g>
        </g>
    </g>
    <defs>
        <clipPath id="clip0_387_2397">
            <rect width="44" height="44" rx="22" fill="white"/>
        </clipPath>
        <clipPath id="clip1_387_2397">
            <rect width="52.1899" height="62" fill="white" transform="translate(-3 4)"/>
        </clipPath>
    </defs>
</svg>
