<svg width="72" height="43" viewBox="0 0 72 43" fill="none" xmlns="http://www.w3.org/2000/svg">
    <path d="M31.9549 35.4822C30.4286 35.4822 29.137 35.1951 28.0803 34.6211C27.0367 34.0471 26.2409 33.2318 25.693 32.1751C25.1451 31.1184 24.8711 29.866 24.8711 28.4179C24.8711 27.322 25.0276 26.3371 25.3407 25.463C25.6669 24.589 26.13 23.8454 26.7301 23.2322C27.3433 22.606 28.0869 22.1298 28.9609 21.8037C29.835 21.4645 30.8265 21.2949 31.9354 21.2949C32.6659 21.2949 33.3965 21.3862 34.127 21.5689C34.8706 21.7385 35.5686 22.032 36.2209 22.4495C36.4427 22.593 36.5862 22.7691 36.6514 22.9778C36.7297 23.1866 36.7427 23.4018 36.6905 23.6236C36.6383 23.8323 36.5405 24.015 36.397 24.1715C36.2535 24.3281 36.0709 24.4259 35.8491 24.465C35.6403 24.5042 35.4055 24.452 35.1446 24.3085C34.6489 24.0215 34.1466 23.8127 33.6378 23.6823C33.129 23.5518 32.5616 23.4866 31.9354 23.4866C30.97 23.4866 30.1546 23.6823 29.4893 24.0737C28.8239 24.452 28.3217 25.0064 27.9825 25.737C27.6564 26.4676 27.4933 27.3612 27.4933 28.4179C27.4933 30.0225 27.8781 31.2423 28.6478 32.0772C29.4175 32.9121 30.559 33.3296 32.0723 33.3296C32.5942 33.3296 33.1225 33.2774 33.6574 33.1731C34.1923 33.0687 34.7141 32.9252 35.2229 32.7425L34.7337 33.858V29.6898H32.5811C32.255 29.6898 32.0006 29.6051 31.8179 29.4355C31.6484 29.2659 31.5636 29.0376 31.5636 28.7506C31.5636 28.4505 31.6484 28.2222 31.8179 28.0657C32.0006 27.9091 32.255 27.8308 32.5811 27.8308H35.8099C36.1361 27.8308 36.384 27.9222 36.5535 28.1048C36.7362 28.2744 36.8275 28.5223 36.8275 28.8484V33.6036C36.8275 33.8906 36.7688 34.1319 36.6514 34.3276C36.547 34.5233 36.3709 34.6668 36.123 34.7581C35.549 34.9668 34.8902 35.143 34.1466 35.2865C33.403 35.4169 32.6724 35.4822 31.9549 35.4822Z" fill="black"/>
    <path d="M5.71535 35.4434C5.31094 35.4434 4.99784 35.3325 4.77606 35.1108C4.56733 34.8759 4.46296 34.5498 4.46296 34.1323V28.1835L4.99132 29.6903L0.275283 23.0565C0.105689 22.8217 0.0274145 22.5738 0.0404603 22.3129C0.0665517 22.0389 0.17744 21.8106 0.373126 21.628C0.568812 21.4323 0.842773 21.3345 1.19501 21.3345C1.45592 21.3345 1.69075 21.3997 1.89948 21.5302C2.12125 21.6606 2.32999 21.8628 2.52567 22.1368L6.02845 27.1072H5.48053L9.00288 22.1368C9.21161 21.8498 9.41382 21.6476 9.6095 21.5302C9.80519 21.3997 10.0465 21.3345 10.3335 21.3345C10.6727 21.3345 10.9336 21.4258 11.1163 21.6084C11.312 21.778 11.4098 21.9933 11.4098 22.2542C11.4229 22.5151 11.3315 22.7891 11.1359 23.0761L6.45896 29.6903L6.96774 28.1835V34.1323C6.96774 35.0064 6.55028 35.4434 5.71535 35.4434Z" fill="black"/>
    <path d="M26.5494 18.0429C26.1189 18.0429 25.7862 17.932 25.5514 17.7103C25.3296 17.4754 25.2188 17.1428 25.2188 16.7123V5.57774C25.2188 5.14723 25.3296 4.82108 25.5514 4.59931C25.7862 4.36448 26.1189 4.24707 26.5494 4.24707H31.2459C32.2113 4.24707 33.0331 4.39057 33.7115 4.67758C34.3899 4.96459 34.9052 5.37553 35.2574 5.9104C35.6227 6.44528 35.8054 7.08452 35.8054 7.82812C35.8054 8.66305 35.564 9.36752 35.0813 9.94153C34.5986 10.5155 33.9398 10.9004 33.1049 11.0961V10.8026C34.0703 10.9461 34.8204 11.3113 35.3553 11.8984C35.8902 12.4855 36.1576 13.2486 36.1576 14.1879C36.1576 15.4142 35.7401 16.3666 34.9052 17.0449C34.0833 17.7103 32.9353 18.0429 31.4611 18.0429H26.5494ZM27.6257 16.1448H31.148C32.0351 16.1448 32.6874 15.9752 33.1049 15.636C33.5224 15.2838 33.7311 14.7619 33.7311 14.0705C33.7311 13.366 33.5224 12.8442 33.1049 12.505C32.6874 12.1658 32.0351 11.9962 31.148 11.9962H27.6257V16.1448ZM27.6257 10.0981H30.8154C31.6764 10.0981 32.3156 9.93501 32.7331 9.60887C33.1636 9.26968 33.3789 8.77394 33.3789 8.12165C33.3789 7.46937 33.1636 6.98015 32.7331 6.65401C32.3156 6.31482 31.6764 6.14522 30.8154 6.14522H27.6257V10.0981Z" fill="black"/>
    <path d="M11.8593 35.5266C11.5462 35.5266 11.2918 35.4549 11.0962 35.3114C10.9135 35.1679 10.8026 34.9787 10.7635 34.7439C10.7244 34.496 10.9005 33.6272 10.9005 33.6272L16.0666 5.23029C16.2362 4.85196 16.4384 4.58453 16.6732 4.42798C16.9211 4.25838 17.2016 4.17358 17.5147 4.17358C17.8147 4.17358 18.0821 4.25838 18.317 4.42798C18.5648 4.58453 18.7736 4.85196 18.9432 5.23029L24.1288 33.6272C24.1288 33.6272 24.3245 34.496 24.2854 34.7439C24.2462 34.9917 24.1354 35.1874 23.9527 35.3309C23.7701 35.4614 23.5287 35.5266 23.2287 35.5266C22.8634 35.5266 22.5764 35.4418 22.3677 35.2722C22.172 35.0896 22.1156 35.095 21.8393 34.4503C21.563 33.8057 20.6767 27.1693 20.6767 27.1693H14.3151L13.3225 33.4833C13.2213 34.1264 13.1696 34.8906 12.6421 35.2722C12.3817 35.4606 12.1985 35.5266 11.8593 35.5266ZM17.4755 7.05017L14.8274 25.1733H20.1802L17.5147 7.34494L17.4755 7.05017Z" fill="black"/>
    <path d="M39.1093 35.5266C38.7962 35.5266 38.5418 35.4549 38.3462 35.3114C38.1635 35.1679 38.0526 34.9787 38.0135 34.7439C37.9744 34.496 38.1505 33.6272 38.1505 33.6272L43.3166 5.23029C43.4862 4.85196 43.6884 4.58453 43.9232 4.42798C44.1711 4.25838 44.4516 4.17358 44.7647 4.17358C45.0647 4.17358 45.3321 4.25838 45.567 4.42798C45.8148 4.58453 46.0236 4.85196 46.1932 5.23029L51.3788 33.6272C51.3788 33.6272 51.5745 34.496 51.5354 34.7439C51.4962 34.9917 51.3854 35.1874 51.2027 35.3309C51.0201 35.4614 50.7787 35.5266 50.4787 35.5266C50.1134 35.5266 49.8264 35.4418 49.6177 35.2722C49.422 35.0896 49.3656 35.095 49.0893 34.4503C48.813 33.8057 47.9267 27.1693 47.9267 27.1693H41.5651L40.5725 33.4833C40.4713 34.1264 40.4196 34.8906 39.8921 35.2722C39.6317 35.4606 39.4485 35.5266 39.1093 35.5266ZM44.7255 7.05017L42.0774 25.1733H47.4302L44.7647 7.34494L44.7255 7.05017Z" fill="black"/>
    <path d="M1.86191 18.0429C1.43141 18.0429 1.09874 17.932 0.863916 17.7103C0.642139 17.4754 0.53125 17.1428 0.53125 16.7123V5.57774C0.53125 5.14723 0.642139 4.82108 0.863916 4.59931C1.09874 4.36448 1.43141 4.24707 1.86191 4.24707H6.55838C7.52376 4.24707 8.34564 4.39057 9.02402 4.67758C9.7024 4.96459 10.2177 5.37553 10.5699 5.9104C10.9352 6.44528 11.1179 7.08452 11.1179 7.82812C11.1179 8.66305 10.8765 9.36752 10.3938 9.94153C9.91113 10.5155 9.25232 10.9004 8.41739 11.0961V10.8026C9.38278 10.9461 10.1329 11.3113 10.6678 11.8984C11.2027 12.4855 11.4701 13.2486 11.4701 14.1879C11.4701 15.4142 11.0526 16.3666 10.2177 17.0449C9.39582 17.7103 8.2478 18.0429 6.77363 18.0429H1.86191ZM2.93819 16.1448H6.46053C7.34764 16.1448 7.99993 15.9752 8.41739 15.636C8.83486 15.2838 9.04359 14.7619 9.04359 14.0705C9.04359 13.366 8.83486 12.8442 8.41739 12.505C7.99993 12.1658 7.34764 11.9962 6.46053 11.9962H2.93819V16.1448ZM2.93819 10.0981H6.12787C6.98889 10.0981 7.62813 9.93501 8.04559 9.60887C8.4761 9.26968 8.69135 8.77394 8.69135 8.12165C8.69135 7.46937 8.4761 6.98015 8.04559 6.65401C7.62813 6.31482 6.98889 6.14522 6.12787 6.14522H2.93819V10.0981Z" fill="black"/>
    <path d="M67.8458 31.6044L56.4503 26.2416L70.3224 20.1466L56.8899 17.5318L69.9561 9.61612L56.4102 9.28011" stroke="#E00700" stroke-width="1.4149" stroke-linecap="round" stroke-linejoin="round"/>
</svg>
